<svg width="2971" height="1724" viewBox="0 0 2971 1724" fill="none" xmlns="http://www.w3.org/2000/svg">
<path d="M658.016 1124.24C658.848 1124.24 662.188 1122.58 680.532 1105.92C696.463 1091.45 723.833 1062.64 767.928 1003.15C812.022 943.657 871.5 853.817 909.418 790.066C947.337 726.316 961.895 691.378 970.642 667.765C979.389 644.151 981.884 632.921 984.002 620.273C986.119 607.626 987.783 593.9 983.025 633.829C978.267 673.758 967.037 767.757 961.044 829.907C955.051 892.057 954.635 919.508 955.876 948.415C957.118 977.322 960.029 1006.85 970.679 1050.14C981.33 1093.43 999.631 1149.58 1010.51 1181C1033.13 1228.79 1047.87 1243.54 1053.32 1247.11C1055.86 1248.59 1057.94 1249.43 1061.34 1250.28" stroke="black" stroke-width="20" stroke-linecap="round"/>
<path d="M712.212 927.625C712.628 927.625 713.044 927.625 764.001 919.93C814.959 912.235 916.445 896.846 976.005 886.839C1035.56 876.831 1050.12 872.672 1065.12 868.387" stroke="black" stroke-width="20" stroke-linecap="round"/>
<path d="M1192.42 989.384C1192.42 994.375 1189.92 1026.89 1186.77 1071.43C1185.73 1086.01 1187.35 1084.37 1191.53 1077.48C1195.71 1070.59 1202.78 1058.53 1216.2 1040.25C1229.61 1021.98 1249.16 997.853 1263.18 982.307C1283.88 959.355 1297.41 952.845 1305.17 951.578C1308.72 950.998 1311.68 952.807 1314.22 956.569C1320.38 965.7 1320.98 990.468 1318.9 1027.13C1317.81 1046.4 1312.66 1066.7 1310.52 1083.64C1303.8 1136.78 1325.14 1164.1 1332.69 1173.13C1336.08 1176.34 1338.57 1176.75 1342.35 1175.3C1346.14 1173.85 1351.13 1170.53 1356.27 1167.1" stroke="black" stroke-width="20" stroke-linecap="round"/>
<path d="M1821.35 608.747C1815.53 608.747 1809.71 608.747 1788.4 616.026C1767.1 623.305 1730.5 637.862 1704.78 649.105C1679.07 660.347 1665.34 667.834 1651.41 677.098C1637.47 686.362 1623.75 697.176 1609.61 711.273C1595.47 725.371 1581.32 742.424 1568.84 760.151C1556.36 777.878 1545.96 795.763 1533.11 828.892C1520.27 862.022 1505.3 909.853 1496.75 939.901C1485.23 980.412 1485.24 1003.13 1487.54 1025.97C1489.92 1049.68 1500.75 1070.38 1511.63 1089.44C1517.46 1099.64 1525.84 1109.75 1539.48 1124.47C1553.12 1139.18 1572.25 1157.9 1587.51 1171.07C1612.5 1192.65 1635.55 1201.52 1670.65 1207.18C1694.78 1211.07 1732.37 1212.42 1773.7 1210.8C1815.02 1209.17 1859.11 1203.35 1910.73 1199.52C1962.35 1195.68 2020.16 1194.02 2055.77 1192.12C2103.12 1189.6 2123.34 1182.68 2139.48 1175.14C2155.34 1167.73 2169.56 1153.31 2186.31 1136.35C2205.79 1116.64 2221.66 1093.26 2234.66 1071.47C2247.06 1050.7 2251.96 1027.72 2254.91 999.07C2256.73 981.302 2255.35 956.689 2251.6 932.402C2247.85 908.114 2240.78 884.822 2234.02 867.624C2227.26 850.426 2221.02 840.028 2192.85 807.428C2164.68 774.828 2114.77 720.342 2084.07 688.946C2053.36 657.549 2043.38 650.895 2024.51 641.227C2005.64 631.56 1978.19 619.082 1961.56 611.199C1939.71 600.848 1928.55 595.74 1915.56 593.427C1901.74 593.194 1885.3 598.614 1863.74 613.247C1851.34 622.889 1835.95 637.03 1820.09 651.6" stroke="black" stroke-width="20" stroke-linecap="round"/>
<path d="M1802.45 917.542C1802.45 925.041 1804.94 951.018 1816.25 983.586C1822.3 1001 1837.67 1013.27 1850.66 1024.59C1863.02 1035.37 1878.84 1038.11 1893.09 1038.54C1907.48 1038.97 1923.77 1028.1 1941.17 1014.28C1956.49 999.618 1971.68 978.179 1985.31 953.431C1991.05 942.409 1994.38 934.507 1997.81 925.104" stroke="black" stroke-width="20" stroke-linecap="round"/>
<path d="M1837.74 815.451C1837.32 816.698 1836.9 817.946 1836.48 825.868C1836.06 833.789 1835.64 848.347 1835.22 863.345" stroke="black" stroke-width="20" stroke-linecap="round"/>
<path d="M1909.58 826.794C1910.41 826.794 1911.24 826.794 1913.13 828.458C1915.01 830.121 1917.92 833.449 1920.46 835.787C1923 838.125 1925.08 839.373 1929.74 843.179" stroke="black" stroke-width="20" stroke-linecap="round"/>
<path d="M1373.35 338.833C1359.81 333.975 1310.97 303.6 1276.39 286.245C1252.39 274.198 1219.66 314.232 1213.61 328.421C1211.25 333.959 1212.52 339.896 1212.78 345.334C1213.77 365.865 1254.96 374.785 1283.01 386.767C1302.69 395.174 1325.76 402.036 1343.59 407.785C1349.73 409.764 1357.49 414.058 1364.05 419.751C1381.55 434.94 1353.73 457.094 1347.22 481.04C1344.27 491.892 1340.1 500.718 1339.55 521.303C1338.43 563.468 1341.72 595.048 1343.36 602.941C1347.67 623.768 1356.42 652.838 1363.75 656.96C1375.3 663.452 1384.23 636.595 1390.75 616.795C1401.51 584.113 1409.83 548.889 1419.36 520.608C1428.65 493.036 1431.13 474.088 1437.37 467.554C1465.23 438.378 1528.71 462.05 1557.64 469.885C1583.42 476.866 1631.37 491.214 1657.74 498.714C1694.26 509.103 1708.61 510.581 1727.38 511.939C1750.85 513.636 1774.02 510.597 1787.91 507.064C1808.92 501.717 1820.91 461.674 1831.87 427.283C1839.42 403.551 1837.89 386.333 1841.15 363.458C1844.48 340.033 1843.9 316.505 1841.73 311.336C1840.58 308.609 1837.4 306.707 1834.39 305.595C1831.38 304.483 1828.14 304.483 1824.86 306.912C1808.26 319.176 1806.85 340.403 1795.96 357.291C1779.8 382.358 1779.02 393.334 1774.68 397.415C1759.92 411.284 1726.76 401.545 1702.25 398.274C1650.33 391.344 1604.18 392.811 1584.69 390.373C1564.82 387.89 1555.49 379.202 1550.86 373.231C1544.92 365.575 1546.2 327.693 1545.92 279.457C1545.69 240.218 1575.04 207.486 1584.06 196.298C1593.7 184.343 1602.32 172.58 1604.8 166.037C1606.94 160.386 1573.12 168.131 1536.37 177.103C1510 183.539 1492.3 199.177 1475.44 215.485C1444.24 245.656 1430.67 264.605 1416.76 277.976C1407.8 291.234 1399.56 302.814 1393.84 309.341C1391.36 312.629 1389.74 315.867 1384.8 324.111" stroke="black" stroke-width="20" stroke-linecap="round"/>
<path d="M1888.6 358.461C1897.78 361.7 1906.95 364.938 1934.35 376.053C1961.75 387.167 2007.09 406.06 2058.52 424.159C2109.94 442.258 2166.08 458.991 2274.62 480.026C2383.15 501.061 2542.39 525.891 2628.74 540.841C2715.08 555.792 2723.72 560.11 2732.22 565.303C2740.72 570.496 2748.81 576.434 2754.87 581.382C2760.93 586.33 2764.71 590.109 2768.6 594.001" stroke="black" stroke-width="20" stroke-linecap="round"/>
<path d="M1883.69 482.774C1896.7 495.238 1928.79 521.916 1965.46 545.568C1986.48 557.885 2012.39 570.84 2137.74 612.329C2263.09 653.819 2487.1 723.451 2722.81 798.464" stroke="black" stroke-width="20" stroke-linecap="round"/>
<path d="M1944.21 633.258C1959.33 639.736 1974.44 646.213 2119.06 692.462C2263.68 738.712 2537.35 824.537 2675.36 867.13C2813.37 909.724 2807.44 906.485 2796.41 898.241" stroke="black" stroke-width="20" stroke-linecap="round"/>
<path d="M804.949 69.7603C803.87 71.9194 799.535 80.5886 768.98 120.917C743.424 154.648 692.544 211.444 670.201 242.817C647.857 274.19 654.334 277.428 694.106 289.083C733.878 300.737 806.749 320.709 845.637 330.998C884.526 341.286 887.225 341.286 889.965 339.667C892.705 338.047 895.403 334.809 912.178 307.231C928.952 279.653 959.719 227.834 976.649 198.171C993.578 168.507 995.737 162.57 994.69 156.812C992.476 144.633 974.081 130.379 954.755 114.039C941.384 102.733 898.544 91.1225 841.327 74.7818C801.156 63.3093 784.863 50.1973 774.705 41.9779C771.79 39.6188 786.335 33.8076 819.106 25.3919C844.038 18.9896 886.963 13.1978 913.519 10.6625C949.091 7.26632 970.58 17.3688 1001.53 28.5079C1045.81 44.4463 1084 52.291 1104.94 57.9914C1125.28 63.5251 1135.88 73.0153 1138.35 76.8183C1141.09 81.0635 1120.25 94.7374 1091.14 113.785C1064.73 129.594 1045.46 141.142 1033.76 148.495C1028.53 151.529 1024.75 153.148 1020.86 154.817" stroke="black" stroke-width="20" stroke-linecap="round"/>
<path d="M1148.45 91.0243C1141.94 96.4221 1133.74 114.938 1124.27 151.488C1116.74 180.565 1102.38 230.68 1093.27 258.43C1084.15 286.179 1080.37 289.958 1076.53 293.524C1069.05 300.477 1032.64 312.302 970.883 327.276C881.369 341.286 859.516 342.905 851.084 345.359C846.97 346.193 843.192 346.193 839.299 346.193" stroke="black" stroke-width="20" stroke-linecap="round"/>
<path d="M10 849.988C11.0795 848.909 22.4313 834.858 43.1065 810.363C60.2636 790.037 82.9358 776.987 122.258 766.101C148.625 758.802 190.188 757.375 224.007 756.238C257.825 755.101 283.194 756.721 306.249 759.984C349.604 766.12 380.109 777.429 397.538 786.4C405.14 790.314 408.489 795.912 410.705 803.273C415.692 819.836 410.239 858.428 402.895 905.545C395.685 951.796 365.601 972.028 351.403 981.343C343.808 986.326 363.785 953.675 379.275 934.644C396.393 913.613 424.208 893.171 460.897 873.575C480.134 863.3 503.523 858.298 525.188 854.151C546.852 850.005 566.824 848.385 588.178 848.9C609.532 849.416 631.663 852.115 654.4 858.633C677.136 865.151 699.807 875.407 719.312 885.548C755.139 904.175 785.174 931.07 809.145 959.645C825.979 979.713 827.833 999.311 828.667 1014.26C829.617 1031.29 811.59 1048.37 778.516 1072.79C755.838 1089.53 718.454 1111.24 700.894 1119.14C683.335 1127.04 686.034 1119.49 690.663 1111.54C700.487 1094.69 718.159 1079.07 739.628 1063.02C763.36 1045.28 794.432 1036.49 827.056 1032.12C861.531 1027.51 896.925 1041.28 929.835 1060.03C946.664 1069.61 961.126 1083.63 980.517 1104.61C999.908 1125.59 1023.12 1154.2 1038.31 1175.95C1062.27 1210.25 1068.28 1238.61 1068.3 1261.74C1068.35 1305.08 1003.02 1319.37 982.823 1325.94C977.48 1327.68 980.983 1319.56 987.248 1313.53C1000.77 1300.5 1022.92 1292.76 1047.39 1286.76C1072.35 1280.65 1097.62 1286.69 1118.85 1294.83C1138.72 1302.46 1151.11 1320.99 1162 1338.11C1173.09 1355.56 1174.08 1387.38 1170.83 1421.97C1168.74 1444.28 1142.07 1459.47 1109.7 1476.07C1054.03 1504.63 1024.17 1499.36 1021.42 1499.63C1007.37 1501.01 1048.1 1496.65 1053.53 1495.01C1056.21 1494.2 1058.97 1494.45 1062.25 1497.96C1065.53 1501.47 1069.31 1508.49 1070.45 1515.07C1071.58 1521.65 1069.96 1527.59 1067.24 1532.27C1053.75 1555.44 1004.73 1573.95 964.561 1588.2C956.579 1590.4 951.181 1591.48 943.812 1592.04C936.443 1592.6 927.267 1592.6 914.541 1594.23" stroke="black" stroke-width="20" stroke-linecap="round"/>
<path d="M60.7067 1487.91C62.326 1490.07 63.9453 1492.23 73.1461 1497.93C82.3469 1503.63 99.0801 1512.81 233.739 1540.47C368.398 1568.14 620.475 1614.02 762.748 1638.47C905.021 1662.91 929.851 1664.53 948.31 1664.83C966.769 1665.12 978.104 1664.04 985.023 1662.41C991.942 1660.77 994.101 1658.61 996.326 1656.39" stroke="black" stroke-width="20" stroke-linecap="round"/>
<path d="M1930.31 1554.97C1928.15 1554.97 1920.56 1551.2 1897.79 1531.71C1880.6 1516.99 1855.59 1488.47 1839.54 1467.81C1815.09 1436.32 1810.92 1403.03 1811.71 1366.87C1812.52 1329.11 1838.6 1296.14 1861.71 1267.57C1883.26 1240.94 1907.85 1225.71 1926.36 1217.26C1939.67 1211.18 1953.68 1215.27 1967.28 1221.24C1995.59 1233.67 2001.17 1258.32 2003.63 1261.9C2007.49 1267.51 1999.57 1239.38 1999.55 1220.07C1999.53 1200.82 2026.62 1167.02 2062.27 1122.92C2089.37 1089.4 2119.35 1064.94 2153.05 1042.62C2170.22 1031.25 2191.07 1025.69 2212.97 1022.08C2234.86 1018.47 2258.07 1018.47 2281.63 1023.86C2305.2 1029.26 2328.41 1040.06 2348.73 1052.63C2416.49 1094.57 2427.55 1126.37 2429.19 1135.08C2429.9 1138.87 2427.59 1141.63 2423.25 1145.72C2418.91 1149.81 2411.89 1155.21 2409.9 1151.51C2407.9 1147.82 2411.14 1134.86 2423.06 1109.03C2434.99 1083.19 2455.5 1044.87 2472.27 1017.84C2499.07 974.653 2528.83 952.579 2557.39 938.414C2570.86 931.732 2584.33 930.726 2608.81 930.963C2633.3 931.201 2668.93 933.9 2687.82 937.449C2706.71 940.998 2707.79 945.317 2707.27 970.212C2706.74 995.107 2704.58 1040.45 2706.44 1055.44C2707.42 1063.37 2726.83 1025.66 2744.74 1000.13C2755.45 984.859 2772.37 967.039 2791.23 952.187C2810.1 937.334 2831.15 926.539 2852.52 918.279C2894.09 902.211 2929.05 898.519 2948.94 899.051C2956.49 899.253 2958.57 902.821 2959.69 906.101C2960.8 909.38 2960.8 913.159 2959.72 918.074C2958.64 922.989 2956.48 928.927 2954.26 936.68" stroke="black" stroke-width="20" stroke-linecap="round"/>
<path d="M1997.37 1543.52C1997.37 1542.98 1997.37 1542.44 2135.83 1495.48C2274.28 1448.51 2551.19 1355.12 2839.76 1255.64" stroke="black" stroke-width="20" stroke-linecap="round"/>
<path d="M1529.56 1386.5C1529.56 1389.2 1529.56 1391.9 1530.37 1438.09C1531.18 1484.28 1532.8 1573.88 1534.45 1622.47C1536.09 1671.06 1537.71 1675.92 1539.38 1680.92" stroke="black" stroke-width="20" stroke-linecap="round"/>
<path d="M1470.68 1628.58C1487.98 1652.9 1525.11 1705.36 1540.96 1713.1C1550.24 1717.63 1555.7 1694.07 1565.74 1678.05C1580.5 1654.49 1613.33 1626.03 1644.4 1598.78C1655.62 1588.94 1657.12 1586.64 1654.98 1586.34C1652.85 1586.04 1646.91 1587.66 1640.34 1591.46C1633.77 1595.26 1626.76 1601.2 1616.26 1612.22" stroke="black" stroke-width="20" stroke-linecap="round"/>
</svg>
