<svg width="1075" height="217" viewBox="0 0 1075 217" fill="none" xmlns="http://www.w3.org/2000/svg">
<path d="M3.89684 182V180.701H9.61222C15.7173 180.701 17.0162 176.025 17.0162 168.231V46.5197C16.8863 39.2456 15.1977 35.089 9.61222 35.089H3.89684V33.9199H42.8653C80.0152 33.9199 96.6417 51.5856 97.0314 78.6037C97.0314 110.298 67.1556 123.288 37.1499 123.677V122.638C64.4278 122.248 91.8356 108.869 91.8356 78.7336C91.446 53.1443 79.7554 36.1281 42.8653 35.089H22.3419V168.231C22.3419 176.155 23.6409 180.701 29.7459 180.701H35.4613V182H3.89684ZM104.87 108.35C104.87 66.6534 134.486 34.0498 176.182 34.0498H259.704C296.724 34.0498 313.481 49.2475 313.871 76.2656C313.871 106.012 287.762 117.832 259.834 119.521C297.374 127.184 285.424 180.961 322.054 180.961V182.13C277.24 182.13 288.021 121.079 253.989 119.65V118.741C281.397 118.092 308.545 106.531 308.545 77.045V76.3955C308.545 50.9361 296.465 35.9982 259.704 35.3488H189.951C224.243 41.5837 247.494 71.3296 247.494 108.35C247.494 150.046 217.878 182.52 176.182 182.52C134.486 182.52 104.87 150.046 104.87 108.35ZM115.391 79.9027C112.404 88.8654 110.845 98.3477 110.845 108.35C110.845 148.617 136.045 181.351 176.182 181.351C216.579 181.351 241.519 148.617 241.519 108.35C241.519 67.9524 216.579 35.3488 176.182 35.3488C145.917 35.3488 124.354 53.534 115.391 79.9027ZM325.94 109.259H324.641V86.6572H416.736V109.259H415.437V103.544C415.437 94.4509 412.32 87.8263 398.291 87.8263H373.351V182H368.025V87.8263H343.086C329.057 87.8263 325.94 94.4509 325.94 103.544V109.259ZM354.906 74.8368H360.621C366.467 74.8368 368.025 70.1606 368.025 62.237V33.9199H373.351V62.237C373.351 70.1606 374.65 74.8368 380.755 74.8368H386.471V76.0058H354.906V74.8368Z" fill="white"/>
<path d="M510.701 19.6527L536.394 23.6055L544.695 52.0655L543.311 52.4608C535.011 31.3134 524.536 23.0126 510.701 22.0244C500.226 21.4314 489.949 28.1512 489.356 43.9623C489.356 48.3104 490.739 57.2041 504.969 57.0065H516.433L518.014 59.1805H490.147V155.826H503.388L505.76 158H470.976L468.604 155.826C478.486 155.826 481.45 149.106 482.241 144.363V59.1805H463.268V57.0065H482.241V44.3576C482.834 26.7677 498.25 19.6527 510.701 19.6527ZM588.663 159.976C559.808 159.976 537.475 137.248 537.475 108.59C537.475 80.3279 560.401 57.2041 588.663 57.2041C617.914 57.2041 639.852 79.735 639.852 108.59C639.852 137.05 617.321 159.976 588.663 159.976ZM585.699 157.407C613.368 157.407 629.179 138.038 631.156 107.8C632.935 80.9208 615.147 59.7734 591.43 59.7734C564.947 59.7734 547.95 81.5137 546.171 109.183C544.392 136.062 562.18 157.407 585.699 157.407ZM653.614 158L651.242 155.826C660.927 155.826 663.891 149.304 664.879 144.561V19.6527H684.446L686.62 21.6291C672.785 21.6291 672.785 36.452 672.785 36.452V155.826H686.027L688.399 158H653.614ZM708.646 27.163C708.646 22.222 711.61 18.8621 716.749 18.8621C721.69 18.8621 724.852 22.222 724.852 27.163C724.852 32.104 721.69 35.2662 716.749 35.2662C711.61 35.2662 708.646 32.104 708.646 27.163ZM702.321 158L699.95 155.826C709.634 155.826 712.598 149.304 713.587 144.561V61.1569H700.543L698.171 59.1805H732.955L735.327 61.1569C721.492 61.1569 721.492 75.9798 721.492 75.9798V155.826H734.734L737.106 158H702.321ZM812.425 158L810.053 155.826C820.528 155.826 823.097 148.316 823.69 143.77V106.812C817.563 129.935 799.578 159.976 775.664 159.976C761.631 159.976 748.39 149.699 748.785 133.097L823.69 86.257V82.3043C823.69 65.1097 811.634 58.7852 801.752 59.3781C783.372 60.7616 764.003 66.6908 753.924 93.7673L752.342 93.372L761.236 64.1215L801.752 57.0065C814.401 57.0065 831.398 64.3191 831.596 81.7113V155.826H844.837L847.209 158H812.425ZM823.69 88.4311L757.283 130.923C756.295 144.561 767.363 156.221 779.617 156.221C800.764 156.024 819.935 121.042 823.69 98.5107V88.4311ZM927.665 64.3191L925.689 63.1333C930.827 54.0419 932.013 47.9151 932.013 44.3576L962.845 42.1835V43.7647C944.267 45.741 933.99 54.0419 927.665 64.3191ZM863.433 94.7555C863.433 73.8058 884.185 57.2041 905.53 57.2041C927.665 57.2041 946.836 72.8176 946.836 94.7555C946.836 116.298 927.27 132.307 905.53 132.307C883.592 132.307 863.433 116.693 863.433 94.7555ZM872.326 94.5579C870.745 114.124 884.185 130.331 902.763 130.331C924.503 130.528 936.559 115.705 938.14 94.7555C939.721 75.3869 926.875 59.1805 907.704 59.1805C886.754 58.9829 873.71 74.794 872.326 94.5579ZM877.07 120.844L878.651 121.634C869.362 127.761 854.736 156.221 869.362 159.779C892.683 165.51 923.515 122.623 946.441 122.623C948.022 122.623 949.603 122.82 950.987 123.216C977.866 130.528 957.509 203.655 894.462 198.121L881.022 170.847L881.418 170.649C889.719 184.286 898.612 187.646 901.972 188.041C950.394 194.761 975.296 131.912 951.382 127.366C931.42 123.611 904.344 164.72 876.674 164.72C874.105 164.72 871.733 164.522 869.164 163.732C850.191 158.198 864.816 128.749 877.07 120.844ZM1024.08 57.2041C1038.71 57.2041 1052.74 60.3663 1061.83 69.853L1037.52 116.101H981.59C984.159 140.805 1005.11 156.814 1027.05 157.605C1039.3 157.802 1056.69 153.257 1064.8 137.05L1065.59 137.643C1056.1 156.024 1039.89 159.976 1026.65 159.976C996.808 159.976 972.894 139.62 972.894 108.59C973.091 80.3279 995.82 57.2041 1024.08 57.2041ZM981.59 113.927H1024.28C1035.35 113.136 1054.12 82.6995 1050.57 68.6672C1045.23 62.3427 1035.94 59.7734 1027.24 59.7734C999.18 59.7734 982.38 81.7113 981.392 109.578C981.392 110.962 981.392 112.543 981.59 113.927Z" fill="white"/>
</svg>
